<?xml version="1.0" encoding="UTF-8" standalone="no"?>
<!-- Created with Inkscape (http://www.inkscape.org/) -->

<svg
   width="3840mm"
   height="2160mm"
   viewBox="0 0 3840 2160"
   version="1.1"
   id="svg5"
   inkscape:version="1.2.2 (b0a8486541, 2022-12-01)"
   sodipodi:docname="back.svg"
   inkscape:export-filename="back.png"
   inkscape:export-xdpi="80"
   inkscape:export-ydpi="80"
   xmlns:inkscape="http://www.inkscape.org/namespaces/inkscape"
   xmlns:sodipodi="http://sodipodi.sourceforge.net/DTD/sodipodi-0.dtd"
   xmlns="http://www.w3.org/2000/svg"
   xmlns:svg="http://www.w3.org/2000/svg">
  <sodipodi:namedview
     id="namedview7"
     pagecolor="#ffffff"
     bordercolor="#000000"
     borderopacity="0.25"
     inkscape:showpageshadow="2"
     inkscape:pageopacity="0"
     inkscape:pagecheckerboard="0"
     inkscape:deskcolor="#d1d1d1"
     inkscape:document-units="mm"
     showgrid="false"
     inkscape:zoom="0.10556063"
     inkscape:cx="7952.7756"
     inkscape:cy="1733.6009"
     inkscape:window-width="1846"
     inkscape:window-height="1696"
     inkscape:window-x="30"
     inkscape:window-y="70"
     inkscape:window-maximized="1"
     inkscape:current-layer="layer1" />
  <defs
     id="defs2">
    <inkscape:perspective
       sodipodi:type="inkscape:persp3d"
       inkscape:vp_x="0 : 1080 : 1"
       inkscape:vp_y="0 : 1000 : 0"
       inkscape:vp_z="3840 : 1080 : 1"
       inkscape:persp3d-origin="1920 : 720 : 1"
       id="perspective9312" />
  </defs>
  <g
     inkscape:label="Layer 1"
     inkscape:groupmode="layer"
     id="layer1">
    <rect
       style="fill:#fbf1c7;fill-opacity:1;stroke-width:0.261875"
       id="rect791"
       width="3860.1428"
       height="2197.6936"
       x="-10.634003"
       y="-10.634003" />
    <rect
       style="fill:#3c3836;fill-opacity:1;stroke:none;stroke-width:5.71289;stroke-dasharray:45.7031, 22.8516;stroke-dashoffset:23.9941;stroke-opacity:1"
       id="rect13506"
       width="3108.6733"
       height="102.79536"
       x="815.2735"
       y="1297.3483"
       ry="0" />
    <path
       style="fill:#7daea3;fill-opacity:1;stroke-width:0.244763"
       d="M 416.49854,1428.501 203.81829,950.72508 315.6724,786.91625 Z"
       id="path6622-3" />
    <path
       style="fill:#000000;fill-opacity:0;stroke:#282828;stroke-width:7;stroke-dasharray:56, 28;stroke-dashoffset:29.4;stroke-opacity:1"
       d="M 428.90489,1348.7459 216.22459,870.97002 328.07869,707.16119 Z"
       id="path6622-3-1" />
    <rect
       style="fill:#282828;fill-opacity:1;stroke-width:0.264583"
       id="rect6062-7"
       width="138.24203"
       height="677.03149"
       x="3274.1882"
       y="363.3284" />
    <rect
       style="fill:#98971a;fill-opacity:1;stroke-width:0.26492"
       id="rect6062"
       width="138.59526"
       height="677.03149"
       x="3274.0002"
       y="695.99799" />
    <rect
       style="fill:#b16286;fill-opacity:1;stroke:none;stroke-width:7;stroke-dasharray:56.0001, 28.0001;stroke-dashoffset:29.4;stroke-opacity:1"
       id="rect9448"
       width="372.19006"
       height="1942.4778"
       x="669.94214"
       y="326.10938" />
    <rect
       style="fill:#282828;fill-opacity:1;stroke:none;stroke-width:3.24825;stroke-dasharray:25.986, 12.993;stroke-dashoffset:13.6426;stroke-opacity:1"
       id="rect9448-5"
       width="372.19006"
       height="418.27075"
       x="669.75732"
       y="1860.9503" />
    <path
       style="fill:#7c6764;fill-opacity:1;stroke-width:0.264583"
       d="M -46.080677,2183.5151 4044.4655,265.85005 4051.5547,418.27076 67.348681,2304.0338 Z"
       id="path2366" />
    <rect
       style="fill:#282828;fill-opacity:1;stroke-width:0.264583"
       id="rect3172"
       width="662.85278"
       height="737.29083"
       x="1910.5757"
       y="1350.5183" />
    <rect
       style="fill:#458588;fill-opacity:1;stroke-width:0.264583"
       id="rect3172-3"
       width="662.85278"
       height="737.29083"
       x="1979.6968"
       y="1282.0022" />
    <path
       style="fill:#b16286;fill-opacity:1;stroke-width:0.264583"
       d="m 2984.61,1517.1176 478.5299,248.1268 -251.6714,85.072 z"
       id="path6622" />
    <path
       style="fill:#98971a;fill-opacity:1;stroke-width:0.223198"
       d="m 1152.3327,1559.6537 -234.26389,326.1094 265.85009,163.0546 z"
       id="path6624" />
    <path
       style="fill:#282828;fill-opacity:1;stroke-width:0.257783"
       d="m 1409.1106,832.99693 552.8628,184.32267 -627.4061,92.1613 z"
       id="path6624-2" />
    <path
       style="fill:#98971a;fill-opacity:1;stroke-width:0.292343"
       d="m 1479.653,726.65688 602.8391,217.40626 -684.1208,108.70306 z"
       id="path6624-2-9" />
    <rect
       style="fill:#75e0d5;fill-opacity:0;stroke:#282828;stroke-width:7;stroke-dasharray:56, 28;stroke-dashoffset:29.4;stroke-opacity:1"
       id="rect3172-3-5"
       width="662.85278"
       height="737.29083"
       x="2047.0454"
       y="1219.3657" />
    <rect
       style="fill:#75e0d5;fill-opacity:0;stroke:#282828;stroke-width:7.47932;stroke-dasharray:59.8346, 29.9173;stroke-dashoffset:31.4133;stroke-opacity:1"
       id="rect3172-3-5-6"
       width="134.58957"
       height="804.53174"
       x="3324.9519"
       y="625.68774" />
    <path
       style="fill:#7c6f64;fill-opacity:1;stroke:none;stroke-width:7.75491;stroke-dasharray:62.0394, 31.0197;stroke-dashoffset:32.5706;stroke-opacity:1"
       d="M 581.32545,293.40484 1180.3743,978.32819 1167.1356,237.49271 Z"
       id="path10694" />
    <path
       style="fill:#ffffff;fill-opacity:0;stroke-width:6.69858"
       d="M -40.191505,4072.3625 V -40.191505 H 7254.5975 14549.387 l -1.706,693.983365 -1.705,693.98334 -820.219,384.4887 c -451.121,211.4688 -821.134,384.4887 -822.252,384.4887 -1.118,0 -2.032,-167.2971 -2.032,-371.7714 v -371.7714 h -264.594 -264.594 l -0.181,497.3698 -0.181,497.3699 -2705.1888,1267.7071 -2705.1924,1267.707 H 5450.1547 3938.7675 v -904.8031 -904.8033 l -703.3432,-803.787 -703.3433,-803.787 -1.6827,2747.6307 -1.6828,2747.6307 -1255.9845,589.0059 C 581.9395,7894.404 3.9354182,8165.1849 -11.722522,8172.1863 l -28.468983,12.73 z M 1534.3555,5124.0618 c -22.2663,-141.081 -39.4683,-257.5269 -38.2266,-258.7687 1.2417,-1.2416 7.7315,9.8812 14.4217,24.7175 10.0475,22.2813 14.6008,26.2279 26.1678,22.6811 7.7021,-2.3616 14.7924,-4.9591 15.7561,-5.7721 0.9638,-0.8132 -17.3841,-44.9006 -40.7732,-97.9721 l -42.5255,-96.4935 -135.9083,-867.4667 c -74.7496,-477.1066 -137.0861,-868.7729 -138.5255,-870.3693 -4.0444,-4.4855 -6.7896,-0.6856 -123.0752,170.3673 -60.1109,88.4213 -125.75363,184.3748 -145.87276,213.23 l -36.5803,52.4641 -25.42106,-57.0947 c -14.25278,-32.0112 -23.90263,-62.9014 -21.96479,-70.3116 2.25601,-8.6272 -0.99749,-15.6005 -9.36905,-20.0809 -10.58215,-5.6633 -14.67766,-3.7134 -23.41617,11.149 -10.19478,17.3392 -9.36288,20.7518 22.24191,91.2397 18.05805,40.2747 32.83278,75.5696 32.83278,78.4332 0,2.8636 -21.74696,37.0194 -48.32654,75.9018 -44.01485,64.388 -47.70564,72.3314 -41.36724,89.0315 28.47307,75.0189 796.83312,1789.7825 798.40522,1781.8158 1.106,-5.6047 -16.2071,-125.6204 -38.4733,-266.7014 z m 92.8823,-25.9772 c 8.1501,-5.1583 7.2367,-21.1439 -6.309,-110.4241 -15.1719,-99.998 -16.4896,-104.3926 -31.3001,-104.3926 -18.0967,0 -19.2929,10.3057 -8.1764,70.4405 6.4998,35.1606 5.9967,40.3502 -4.6671,48.1478 -11.3829,8.3234 -11.2217,10.4135 3.3838,43.8798 8.4349,19.327 16.9153,40.4152 18.8456,46.8626 3.8559,12.8794 13.5609,14.7658 28.2232,5.486 z m -47.8086,-314.2658 c 6.9016,-4.3791 5.3371,-25.7594 -7.881,-107.6989 -9.0706,-56.2293 -17.9936,-103.7367 -19.8288,-105.572 -7.8769,-7.8768 -31.5607,6.1473 -28.4524,16.8479 1.7865,6.1502 9.8393,54.1369 17.8949,106.6371 14.2869,93.1092 18.2765,102.4699 38.2673,89.7859 z m -42.7291,-322.565 c -3.0565,-49.1238 -32.6188,-207.633 -38.7086,-207.5503 -24.387,0.3309 -25.36,9.2152 -11.0606,101.0027 19.5536,125.5141 18.2522,121.1698 35.5591,118.705 8.1604,-1.1622 14.5539,-6.6321 14.2101,-12.1574 z m 4120.2542,-354.9299 c 324.2115,-47.6761 852.4767,-125.2271 1173.9222,-172.3356 321.4463,-47.1084 584.4495,-87.1959 584.4515,-89.0834 0,-1.8874 -90.518,-33.5509 -201.1565,-70.3633 l -201.1611,-66.9317 420.5397,-66.2878 c 231.2968,-36.4583 424.5831,-68.3702 429.5247,-70.9155 6.2698,-3.2291 3.2327,-6.9485 -10.0479,-12.3066 -53.9846,-21.7806 -2250.4672,-811.6805 -2257.0477,-811.6805 -4.5747,0 -30.3432,90.9095 -63.1327,222.7279 -30.4717,122.5004 -55.8833,223.4066 -56.4701,224.2359 -0.5867,0.8295 -34.6764,-9.5956 -75.7546,-23.1667 -41.0781,-13.5711 -75.774,-23.2928 -77.1018,-21.6038 -3.0515,3.8815 -279.7961,1032.8753 -279.6178,1039.677 0.072,2.7631 5.4068,4.955 11.8542,4.871 6.4474,-0.084 276.9865,-39.1608 601.1979,-86.8369 z m -4170.3775,35.0758 c -0.28,-10.1316 -7.1999,-59.115 -15.3777,-108.852 -13.4982,-82.0943 -16.0758,-90.2178 -27.9601,-88.1194 -7.2002,1.2713 -14.3294,3.5142 -15.8427,4.9842 -1.5133,1.4701 4.3401,49.4133 13.0076,106.5406 15.0922,99.4727 16.4132,103.8677 31.2204,103.8677 12.5246,0 15.3647,-3.499 14.9525,-18.4211 z m -46.3812,-299.8725 c 0,-5.8383 -26.6758,-172.8683 -30.7393,-192.4735 -2.936,-14.1653 -7.687,-18.4211 -20.5646,-18.4211 -14.7287,0 -16.2864,2.2195 -12.9284,18.4211 4.0635,19.6052 30.7394,186.6352 30.7394,192.4735 0,1.9031 7.5359,3.4601 16.7464,3.4601 9.2106,0 16.7465,-1.557 16.7465,-3.4601 z m -49.6665,-323.9134 c -1.7381,-5.9977 -9.7513,-53.8597 -17.8069,-106.3598 -14.0922,-91.8409 -15.2479,-95.4548 -30.5246,-95.4548 -19.1674,0 -19.0677,-4.5602 -2.2615,103.4221 19.233,123.5745 16.8754,116.347 36.7142,112.5546 11.8383,-2.263 16.0744,-6.5857 13.8788,-14.1621 z m -58.5864,-301.487 c 7.4004,-4.6905 6.225,-23.7441 -6.7083,-108.7493 -14.6397,-96.2194 -16.6809,-103.2046 -30.7428,-105.203 -11.8969,-1.6908 -15.062,1.119 -15.062,13.3706 0,36.1479 30.1732,206.4652 36.5605,206.3713 3.8392,-0.054 11.0178,-2.6617 15.9526,-5.7896 z M 963.40659,3108.6722 c 65.22381,-95.0561 66.50261,-97.8468 49.10461,-107.1579 -12.1574,-6.5065 -19.06086,1.1838 -73.83384,82.249 -45.37474,67.1556 -58.51281,91.3362 -52.75437,97.0946 4.2175,4.2175 11.04831,7.6682 15.1796,7.6682 4.13128,0 32.16807,-35.9343 62.304,-79.8539 z m 184.75581,-269.7365 c 55.2987,-81.4432 58.7638,-88.483 47.5779,-96.6624 -6.6356,-4.852 -14.6072,-7.2504 -17.7147,-5.3299 -3.1075,1.9206 -31.3142,41.4383 -62.6815,87.8171 -44.5459,65.8643 -55.3784,86.3168 -49.4808,93.4229 4.1528,5.0038 10.9494,8.9843 15.1036,8.8453 4.1542,-0.1386 34.3921,-39.7807 67.1955,-88.093 z m 140.622,62.6727 c 1.8958,-3.0675 -3.8841,-50.5437 -12.8441,-105.5027 -8.96,-54.9591 -16.362,-102.1863 -16.4487,-104.9495 -0.2037,-6.4875 -14.5903,-6.2892 -25.03,0.345 -6.2476,3.9702 -4.3487,28.3309 8.2156,105.4001 8.9876,55.13 16.4121,102.4972 16.4989,105.2604 0.215,6.8568 25.3185,6.3877 29.6083,-0.5533 z"
       id="path597"
       transform="scale(0.26458333)" />
  </g>
</svg>
